<svg width="300" height="300" viewBox="0 0 300 300" fill="none" xmlns="http://www.w3.org/2000/svg">
<path d="M0 20C0 8.9543 8.95431 0 20 0H280C291.046 0 300 8.95431 300 20V280C300 291.046 291.046 300 280 300H20C8.9543 300 0 291.046 0 280V20Z" fill="#3A3A3A"/>
<path d="M29.24 181C28.6533 181 28.1733 180.813 27.8 180.44C27.4267 180.067 27.24 179.613 27.24 179.08V127C27.24 126.413 27.4267 125.933 27.8 125.56C28.1733 125.187 28.6533 125 29.24 125H35.56C36.3067 125 36.8667 125.213 37.24 125.64C37.6133 126.013 37.8533 126.307 37.96 126.52L53.4 155.32L69 126.52C69.1067 126.307 69.3467 126.013 69.72 125.64C70.0933 125.213 70.6533 125 71.4 125H77.64C78.2267 125 78.7067 125.187 79.08 125.56C79.4533 125.933 79.64 126.413 79.64 127V179.08C79.64 179.613 79.4533 180.067 79.08 180.44C78.7067 180.813 78.2267 181 77.64 181H70.92C70.3333 181 69.8533 180.813 69.48 180.44C69.16 180.067 69 179.613 69 179.08V144.44L57.8 165.8C57.5333 166.28 57.1867 166.707 56.76 167.08C56.3333 167.4 55.7733 167.56 55.08 167.56H51.8C51.0533 167.56 50.4667 167.4 50.04 167.08C49.6667 166.707 49.3467 166.28 49.08 165.8L37.88 144.44V179.08C37.88 179.613 37.6933 180.067 37.32 180.44C36.9467 180.813 36.4933 181 35.96 181H29.24ZM94.0038 181C93.4704 181 93.0171 180.813 92.6438 180.44C92.2704 180.067 92.0838 179.613 92.0838 179.08V126.92C92.0838 126.387 92.2704 125.933 92.6438 125.56C93.0171 125.187 93.4704 125 94.0038 125H101.444C101.977 125 102.43 125.187 102.804 125.56C103.177 125.933 103.364 126.387 103.364 126.92V171.48H128.724C129.31 171.48 129.79 171.667 130.164 172.04C130.537 172.413 130.724 172.893 130.724 173.48V179.08C130.724 179.613 130.537 180.067 130.164 180.44C129.79 180.813 129.31 181 128.724 181H94.0038ZM147.466 181C146.613 181 145.946 180.787 145.466 180.36C144.986 179.933 144.64 179.4 144.426 178.76L127.306 127.4C127.2 127.133 127.146 126.893 127.146 126.68C127.146 126.2 127.306 125.8 127.626 125.48C127.946 125.16 128.346 125 128.826 125H135.866C136.613 125 137.173 125.213 137.546 125.64C137.973 126.013 138.24 126.387 138.346 126.76L151.866 167.96L165.306 126.76C165.466 126.387 165.733 126.013 166.106 125.64C166.533 125.213 167.12 125 167.866 125H174.906C175.333 125 175.706 125.16 176.026 125.48C176.4 125.8 176.586 126.2 176.586 126.68C176.586 126.893 176.533 127.133 176.426 127.4L159.306 178.76C159.093 179.4 158.746 179.933 158.266 180.36C157.786 180.787 157.12 181 156.266 181H147.466ZM186.973 181C186.439 181 185.986 180.813 185.613 180.44C185.239 180.067 185.053 179.613 185.053 179.08V127C185.053 126.413 185.239 125.933 185.613 125.56C185.986 125.187 186.439 125 186.973 125H222.173C222.759 125 223.239 125.187 223.613 125.56C223.986 125.933 224.173 126.413 224.173 127V132.28C224.173 132.813 223.986 133.267 223.613 133.64C223.239 134.013 222.759 134.2 222.173 134.2H195.853V148.36H220.413C220.999 148.36 221.479 148.547 221.853 148.92C222.226 149.24 222.413 149.693 222.413 150.28V155.24C222.413 155.827 222.226 156.307 221.853 156.68C221.479 157 220.999 157.16 220.413 157.16H195.853V171.8H222.813C223.399 171.8 223.879 171.987 224.253 172.36C224.626 172.733 224.813 173.213 224.813 173.8V179.08C224.813 179.613 224.626 180.067 224.253 180.44C223.879 180.813 223.399 181 222.813 181H186.973ZM249.058 181C248.525 181 248.071 180.813 247.698 180.44C247.325 180.067 247.138 179.613 247.138 179.08V134.84H232.338C231.805 134.84 231.351 134.653 230.978 134.28C230.605 133.907 230.418 133.453 230.418 132.92V127C230.418 126.413 230.605 125.933 230.978 125.56C231.351 125.187 231.805 125 232.338 125H273.138C273.725 125 274.205 125.187 274.578 125.56C274.951 125.933 275.138 126.413 275.138 127V132.92C275.138 133.453 274.951 133.907 274.578 134.28C274.205 134.653 273.725 134.84 273.138 134.84H258.418V179.08C258.418 179.613 258.231 180.067 257.858 180.44C257.485 180.813 257.005 181 256.418 181H249.058Z" fill="#FFB355"/>
<line x1="179.8" y1="111.4" x2="179.8" y2="181" stroke="#FAFBFC" stroke-dasharray="2 2"/>
<path d="M179.8 123L170.274 101.25L189.326 101.25L179.8 123Z" fill="#FAFBFC"/>
</svg>
