<svg width="256" height="256" viewBox="0 0 256 256" fill="none" xmlns="http://www.w3.org/2000/svg">
<g clip-path="url(#clip0_346_2098)">
<path d="M0 90.16C0 58.2685 0 42.3228 6.30485 30.1854C11.6179 19.9574 19.9574 11.6179 30.1854 6.30485C42.3228 0 58.2685 0 90.16 0H165.84C197.731 0 213.677 0 225.815 6.30485C236.043 11.6179 244.382 19.9574 249.695 30.1854C256 42.3228 256 58.2685 256 90.16V165.84C256 197.731 256 213.677 249.695 225.815C244.382 236.043 236.043 244.382 225.815 249.695C213.677 256 197.731 256 165.84 256H90.16C58.2685 256 42.3228 256 30.1854 249.695C19.9574 244.382 11.6179 236.043 6.30485 225.815C0 213.677 0 197.731 0 165.84V90.16Z" fill="#3A3A3A"/>
<path d="M25.004 151C24.5053 151 24.0973 150.841 23.78 150.524C23.4627 150.207 23.304 149.821 23.304 149.368V105.1C23.304 104.601 23.4627 104.193 23.78 103.876C24.0973 103.559 24.5053 103.4 25.004 103.4H30.376C31.0107 103.4 31.4867 103.581 31.804 103.944C32.1213 104.261 32.3253 104.511 32.416 104.692L45.54 129.172L58.8 104.692C58.8907 104.511 59.0947 104.261 59.412 103.944C59.7293 103.581 60.2053 103.4 60.84 103.4H66.144C66.6427 103.4 67.0507 103.559 67.368 103.876C67.6853 104.193 67.844 104.601 67.844 105.1V149.368C67.844 149.821 67.6853 150.207 67.368 150.524C67.0507 150.841 66.6427 151 66.144 151H60.432C59.9333 151 59.5253 150.841 59.208 150.524C58.936 150.207 58.8 149.821 58.8 149.368V119.924L49.28 138.08C49.0533 138.488 48.7587 138.851 48.396 139.168C48.0333 139.44 47.5573 139.576 46.968 139.576H44.18C43.5453 139.576 43.0467 139.44 42.684 139.168C42.3667 138.851 42.0947 138.488 41.868 138.08L32.348 119.924V149.368C32.348 149.821 32.1893 150.207 31.872 150.524C31.5547 150.841 31.1693 151 30.716 151H25.004ZM80.0532 151C79.5999 151 79.2145 150.841 78.8972 150.524C78.5799 150.207 78.4212 149.821 78.4212 149.368V105.032C78.4212 104.579 78.5799 104.193 78.8972 103.876C79.2145 103.559 79.5999 103.4 80.0532 103.4H86.3772C86.8305 103.4 87.2159 103.559 87.5332 103.876C87.8505 104.193 88.0092 104.579 88.0092 105.032V142.908H109.565C110.064 142.908 110.472 143.067 110.789 143.384C111.107 143.701 111.265 144.109 111.265 144.608V149.368C111.265 149.821 111.107 150.207 110.789 150.524C110.472 150.841 110.064 151 109.565 151H80.0532ZM125.496 151C124.771 151 124.204 150.819 123.796 150.456C123.388 150.093 123.094 149.64 122.912 149.096L108.36 105.44C108.27 105.213 108.224 105.009 108.224 104.828C108.224 104.42 108.36 104.08 108.632 103.808C108.904 103.536 109.244 103.4 109.652 103.4H115.636C116.271 103.4 116.747 103.581 117.064 103.944C117.427 104.261 117.654 104.579 117.744 104.896L129.236 139.916L140.66 104.896C140.796 104.579 141.023 104.261 141.34 103.944C141.703 103.581 142.202 103.4 142.836 103.4H148.82C149.183 103.4 149.5 103.536 149.772 103.808C150.09 104.08 150.248 104.42 150.248 104.828C150.248 105.009 150.203 105.213 150.112 105.44L135.56 149.096C135.379 149.64 135.084 150.093 134.676 150.456C134.268 150.819 133.702 151 132.976 151H125.496ZM159.077 151C158.623 151 158.238 150.841 157.921 150.524C157.603 150.207 157.445 149.821 157.445 149.368V105.1C157.445 104.601 157.603 104.193 157.921 103.876C158.238 103.559 158.623 103.4 159.077 103.4H188.997C189.495 103.4 189.903 103.559 190.221 103.876C190.538 104.193 190.697 104.601 190.697 105.1V109.588C190.697 110.041 190.538 110.427 190.221 110.744C189.903 111.061 189.495 111.22 188.997 111.22H166.625V123.256H187.501C187.999 123.256 188.407 123.415 188.725 123.732C189.042 124.004 189.201 124.389 189.201 124.888V129.104C189.201 129.603 189.042 130.011 188.725 130.328C188.407 130.6 187.999 130.736 187.501 130.736H166.625V143.18H189.541C190.039 143.18 190.447 143.339 190.765 143.656C191.082 143.973 191.241 144.381 191.241 144.88V149.368C191.241 149.821 191.082 150.207 190.765 150.524C190.447 150.841 190.039 151 189.541 151H159.077ZM211.849 151C211.396 151 211.011 150.841 210.693 150.524C210.376 150.207 210.217 149.821 210.217 149.368V111.764H197.637C197.184 111.764 196.799 111.605 196.481 111.288C196.164 110.971 196.005 110.585 196.005 110.132V105.1C196.005 104.601 196.164 104.193 196.481 103.876C196.799 103.559 197.184 103.4 197.637 103.4H232.317C232.816 103.4 233.224 103.559 233.541 103.876C233.859 104.193 234.017 104.601 234.017 105.1V110.132C234.017 110.585 233.859 110.971 233.541 111.288C233.224 111.605 232.816 111.764 232.317 111.764H219.805V149.368C219.805 149.821 219.647 150.207 219.329 150.524C219.012 150.841 218.604 151 218.105 151H211.849Z" fill="#FFB355"/>
<line x1="153.46" y1="91.8479" x2="153.46" y2="151.24" stroke="#FAFBFC" stroke-dasharray="2 2"/>
<path d="M153.387 101.747L145.258 83.1866L161.516 83.1866L153.387 101.747Z" fill="#FAFBFC"/>
</g>
<defs>
<clipPath id="clip0_346_2098">
<rect width="256" height="256" fill="white"/>
</clipPath>
</defs>
</svg>
